<?xml version="1.0" encoding="utf-8"?>
<!-- Generator: Adobe Illustrator 16.2.0, SVG Export Plug-In . SVG Version: 6.00 Build 0)  -->
<!DOCTYPE svg PUBLIC "-//W3C//DTD SVG 1.1//EN" "http://www.w3.org/Graphics/SVG/1.1/DTD/svg11.dtd" [
	<!ENTITY ns_extend "http://ns.adobe.com/Extensibility/1.0/">
	<!ENTITY ns_ai "http://ns.adobe.com/AdobeIllustrator/10.0/">
	<!ENTITY ns_graphs "http://ns.adobe.com/Graphs/1.0/">
	<!ENTITY ns_vars "http://ns.adobe.com/Variables/1.0/">
	<!ENTITY ns_imrep "http://ns.adobe.com/ImageReplacement/1.0/">
	<!ENTITY ns_sfw "http://ns.adobe.com/SaveForWeb/1.0/">
	<!ENTITY ns_custom "http://ns.adobe.com/GenericCustomNamespace/1.0/">
	<!ENTITY ns_adobe_xpath "http://ns.adobe.com/XPath/1.0/">
]>
<svg version="1.1" id="Warstwa_1" xmlns:x="&ns_extend;" xmlns:i="&ns_ai;" xmlns:graph="&ns_graphs;"
	 xmlns="http://www.w3.org/2000/svg" xmlns:xlink="http://www.w3.org/1999/xlink" x="0px" y="0px" width="200px" height="200px"
	 viewBox="0 0 200 200" enable-background="new 0 0 200 200" xml:space="preserve">
<metadata>
	<sfw  xmlns="&ns_sfw;">
		<slices></slices>
		<sliceSourceBounds  width="200" height="200" x="0" y="-200" bottomLeftOrigin="true"></sliceSourceBounds>
	</sfw>
</metadata>
<path d="M142.857,0c-17.074,0-32.385,7.5-42.852,19.373C89.537,7.5,74.219,0,57.143,0C25.583,0,0,25.584,0,57.143
	C0,74.216,7.497,89.528,19.366,100C7.497,110.469,0,125.785,0,142.855C0,174.416,25.583,200,57.143,200
	c30.956,0,56.144-24.619,57.097-55.342h0.043v-30.373h28.574c7.891,0,14.285-6.396,14.285-14.285c0-7.89-6.395-14.286-14.285-14.286
	h-28.574V73.301V57.143c0-15.779,12.795-28.571,28.574-28.571c15.777,0,28.572,12.792,28.572,28.571
	c0,7.89,6.396,14.285,14.283,14.285c7.891,0,14.287-6.396,14.287-14.285C200,25.584,174.416,0,142.857,0 M57.143,28.571
	c15.778,0,28.571,12.792,28.571,28.571v28.571H57.143c-15.779,0-28.572-12.793-28.572-28.571
	C28.571,41.363,41.364,28.571,57.143,28.571 M57.143,171.428c-15.779,0-28.572-12.791-28.572-28.572
	c0-15.779,12.792-28.57,28.572-28.57h28.571v28.57C85.714,158.637,72.921,171.428,57.143,171.428"/>
</svg>
